<mxfile host="app.diagrams.net" agent="Mozilla/5.0 (Windows NT 10.0; Win64; x64) AppleWebKit/537.36 (KHTML, like Gecko) Chrome/134.0.0.0 YaBrowser/25.4.0.0 Safari/537.36" version="27.0.9">
  <diagram name="Page-1" id="ZGwtdXnJLEFAFNSg4rEp">
    <mxGraphModel dx="786" dy="462" grid="1" gridSize="10" guides="1" tooltips="1" connect="1" arrows="1" fold="1" page="1" pageScale="1" pageWidth="827" pageHeight="1169" math="0" shadow="0">
      <root>
        <mxCell id="0" />
        <mxCell id="1" parent="0" />
        <mxCell id="jIZisN_xbtMa4W51BXko-1" value="&lt;font&gt;Начало&lt;/font&gt;" style="ellipse;whiteSpace=wrap;html=1;fontFamily=Times New Roman;fontSize=18;" vertex="1" parent="1">
          <mxGeometry x="267" y="70" width="120" height="100" as="geometry" />
        </mxCell>
        <mxCell id="jIZisN_xbtMa4W51BXko-2" value="" style="endArrow=classic;html=1;rounded=0;fontFamily=Times New Roman;fontSize=18;" edge="1" parent="1" source="jIZisN_xbtMa4W51BXko-3">
          <mxGeometry width="50" height="50" relative="1" as="geometry">
            <mxPoint x="299.5" y="170" as="sourcePoint" />
            <mxPoint x="299.5" y="270" as="targetPoint" />
          </mxGeometry>
        </mxCell>
        <mxCell id="jIZisN_xbtMa4W51BXko-4" value="" style="endArrow=classic;html=1;rounded=0;fontFamily=Times New Roman;fontSize=18;exitX=0.381;exitY=1.022;exitDx=0;exitDy=0;exitPerimeter=0;" edge="1" parent="1" source="jIZisN_xbtMa4W51BXko-3">
          <mxGeometry width="50" height="50" relative="1" as="geometry">
            <mxPoint x="309.5" y="320" as="sourcePoint" />
            <mxPoint x="309.5" y="390" as="targetPoint" />
          </mxGeometry>
        </mxCell>
        <mxCell id="jIZisN_xbtMa4W51BXko-3" value="&lt;font&gt;Загрузка изображения с устройства&lt;/font&gt;" style="rounded=0;whiteSpace=wrap;html=1;fontFamily=Times New Roman;fontSize=18;" vertex="1" parent="1">
          <mxGeometry x="240" y="240" width="180" height="60" as="geometry" />
        </mxCell>
        <mxCell id="jIZisN_xbtMa4W51BXko-7" value="" style="endArrow=classic;html=1;rounded=0;entryX=0.422;entryY=0;entryDx=0;entryDy=0;entryPerimeter=0;fontFamily=Times New Roman;fontSize=18;exitX=0.414;exitY=1.007;exitDx=0;exitDy=0;exitPerimeter=0;" edge="1" parent="1" source="jIZisN_xbtMa4W51BXko-1" target="jIZisN_xbtMa4W51BXko-3">
          <mxGeometry width="50" height="50" relative="1" as="geometry">
            <mxPoint x="299.5" y="170" as="sourcePoint" />
            <mxPoint x="299.5" y="230" as="targetPoint" />
          </mxGeometry>
        </mxCell>
        <mxCell id="jIZisN_xbtMa4W51BXko-9" value="&lt;font&gt;Предобработка изображения&lt;/font&gt;" style="rounded=0;whiteSpace=wrap;html=1;fontFamily=Times New Roman;fontSize=18;" vertex="1" parent="1">
          <mxGeometry x="240" y="390" width="180" height="60" as="geometry" />
        </mxCell>
        <mxCell id="jIZisN_xbtMa4W51BXko-10" value="" style="endArrow=classic;html=1;rounded=0;fontFamily=Times New Roman;fontSize=18;" edge="1" parent="1">
          <mxGeometry width="50" height="50" relative="1" as="geometry">
            <mxPoint x="309.5" y="450" as="sourcePoint" />
            <mxPoint x="309.5" y="510" as="targetPoint" />
          </mxGeometry>
        </mxCell>
        <mxCell id="jIZisN_xbtMa4W51BXko-12" value="&lt;div&gt;Извлечение признаков&lt;/div&gt;&lt;div&gt;SURF+ MobileNetV2&lt;/div&gt;" style="rounded=0;whiteSpace=wrap;html=1;fontFamily=Times New Roman;fontSize=18;" vertex="1" parent="1">
          <mxGeometry x="234" y="510" width="186" height="60" as="geometry" />
        </mxCell>
        <mxCell id="jIZisN_xbtMa4W51BXko-14" value="" style="endArrow=classic;html=1;rounded=0;fontFamily=Times New Roman;fontSize=18;" edge="1" parent="1">
          <mxGeometry width="50" height="50" relative="1" as="geometry">
            <mxPoint x="320" y="570" as="sourcePoint" />
            <mxPoint x="320" y="620" as="targetPoint" />
          </mxGeometry>
        </mxCell>
        <mxCell id="jIZisN_xbtMa4W51BXko-16" value="Объединение" style="rounded=0;whiteSpace=wrap;html=1;fontFamily=Times New Roman;fontSize=18;" vertex="1" parent="1">
          <mxGeometry x="240" y="620" width="180" height="60" as="geometry" />
        </mxCell>
        <mxCell id="jIZisN_xbtMa4W51BXko-18" value="Передача объединённых признаков в SVM" style="rounded=0;whiteSpace=wrap;html=1;fontFamily=Times New Roman;fontSize=18;" vertex="1" parent="1">
          <mxGeometry x="240" y="740" width="180" height="60" as="geometry" />
        </mxCell>
        <mxCell id="jIZisN_xbtMa4W51BXko-19" value="" style="endArrow=classic;html=1;rounded=0;entryX=0.5;entryY=0;entryDx=0;entryDy=0;exitX=0.5;exitY=1;exitDx=0;exitDy=0;fontFamily=Times New Roman;fontSize=18;" edge="1" parent="1" source="jIZisN_xbtMa4W51BXko-16" target="jIZisN_xbtMa4W51BXko-18">
          <mxGeometry width="50" height="50" relative="1" as="geometry">
            <mxPoint x="314.5" y="680" as="sourcePoint" />
            <mxPoint x="314.5" y="730" as="targetPoint" />
          </mxGeometry>
        </mxCell>
        <mxCell id="jIZisN_xbtMa4W51BXko-20" value="&lt;font&gt;определение класса мебели&lt;/font&gt;" style="rounded=0;whiteSpace=wrap;html=1;fontFamily=Times New Roman;fontSize=18;" vertex="1" parent="1">
          <mxGeometry x="240" y="860" width="180" height="60" as="geometry" />
        </mxCell>
        <mxCell id="jIZisN_xbtMa4W51BXko-22" value="" style="endArrow=classic;html=1;rounded=0;entryX=0.5;entryY=0;entryDx=0;entryDy=0;exitX=0.5;exitY=1;exitDx=0;exitDy=0;fontFamily=Times New Roman;fontSize=18;" edge="1" parent="1" source="jIZisN_xbtMa4W51BXko-18" target="jIZisN_xbtMa4W51BXko-20">
          <mxGeometry width="50" height="50" relative="1" as="geometry">
            <mxPoint x="300" y="820" as="sourcePoint" />
            <mxPoint x="300" y="867" as="targetPoint" />
          </mxGeometry>
        </mxCell>
        <mxCell id="jIZisN_xbtMa4W51BXko-25" value="&lt;font&gt;Вывод информации пользователю на мобильном устройстве&lt;/font&gt;" style="rounded=0;whiteSpace=wrap;html=1;fontFamily=Times New Roman;fontSize=18;" vertex="1" parent="1">
          <mxGeometry x="240" y="960" width="180" height="70" as="geometry" />
        </mxCell>
        <mxCell id="jIZisN_xbtMa4W51BXko-26" value="" style="endArrow=classic;html=1;rounded=0;fontFamily=Times New Roman;fontSize=18;" edge="1" parent="1">
          <mxGeometry width="50" height="50" relative="1" as="geometry">
            <mxPoint x="330" y="920" as="sourcePoint" />
            <mxPoint x="330" y="960" as="targetPoint" />
          </mxGeometry>
        </mxCell>
        <mxCell id="jIZisN_xbtMa4W51BXko-27" value="КОНЕЦ" style="ellipse;whiteSpace=wrap;html=1;fontFamily=Times New Roman;fontSize=18;" vertex="1" parent="1">
          <mxGeometry x="270" y="1080" width="120" height="80" as="geometry" />
        </mxCell>
        <mxCell id="jIZisN_xbtMa4W51BXko-28" value="" style="endArrow=classic;html=1;rounded=0;entryX=0.583;entryY=-0.033;entryDx=0;entryDy=0;entryPerimeter=0;fontFamily=Times New Roman;fontSize=18;" edge="1" parent="1" target="jIZisN_xbtMa4W51BXko-27">
          <mxGeometry width="50" height="50" relative="1" as="geometry">
            <mxPoint x="340" y="1030" as="sourcePoint" />
            <mxPoint x="430" y="920" as="targetPoint" />
          </mxGeometry>
        </mxCell>
      </root>
    </mxGraphModel>
  </diagram>
</mxfile>
